<?xml version="1.0" standalone="no"?>
<!DOCTYPE svg PUBLIC "-//W3C//DTD SVG 20010904//EN"
 "http://www.w3.org/TR/2001/REC-SVG-20010904/DTD/svg10.dtd">
<svg version="1.0" xmlns="http://www.w3.org/2000/svg"
 width="500.000000pt" height="500.000000pt" viewBox="0 0 500.000000 500.000000"
 preserveAspectRatio="xMidYMid meet">
<metadata>
Created by potrace 1.11, written by Peter Selinger 2001-2013
</metadata>
<g transform="translate(0.000000,500.000000) scale(0.100000,-0.100000)"
fill="#000000" stroke="none">
<path d="M921 3338 l-921 -922 0 -373 0 -373 920 0 c869 0 920 -1 921 -17 0
-10 0 -217 1 -460 l0 -443 458 0 c357 0 459 3 462 12 2 7 3 382 3 833 l-1 820
-917 0 c-504 0 -917 2 -917 5 0 3 413 418 917 922 l918 918 -462 0 -461 0
-921 -922z"/>
<path d="M3158 4248 c-6 -21 -2 -887 4 -894 5 -5 908 892 908 902 0 2 -204 4
-454 4 -354 0 -455 -3 -458 -12z"/>
<path d="M4079 4213 c0 -27 0 -234 0 -461 l0 -413 -461 -461 -461 -461 -1
-431 c-1 -237 1 -444 4 -461 l6 -29 444 -1 c245 -1 451 1 458 3 9 3 12 104 12
461 l0 457 460 460 459 459 1 463 0 462 -460 0 -460 0 -1 -47z"/>
<path d="M4540 1959 c-244 -246 -446 -451 -447 -456 -2 -4 201 -8 450 -8 l452
0 3 458 c1 251 -1 456 -5 456 -5 -1 -208 -203 -453 -450z"/>
</g>
</svg>
